<svg width="24" height="24" viewBox="0 0 24 24" fill="none" xmlns="http://www.w3.org/2000/svg">
<g clip-path="url(#clip0_2_2)">
<path fill-rule="evenodd" clip-rule="evenodd" d="M1 12.155C3.256 16.125 5.55 20.073 7.879 24H2.5C1.671 24 1 23.325 1 22.5V12.155ZM3.85 13.014C7.128 14.966 16.716 20.672 16.971 20.819L11.809 23.799C11.578 23.931 11.319 24 11.058 24C10.509 24 10.021 23.702 9.759 23.25L3.85 13.014V13.014ZM5.75 0.201C5.52 0.068 5.261 0 5 0C4.476 0 3.974 0.277 3.701 0.75L0.201 6.812C0.068 7.042 0 7.301 0 7.561C0 8.088 0.278 8.589 0.75 8.861C3.686 10.556 15.33 17.561 18.266 19.257C18.984 19.67 19.899 19.425 20.314 18.707L23.814 12.645C23.947 12.415 24 12.157 24 11.896C24 11.376 23.743 10.871 23.266 10.596L5.75 0.201V0.201ZM6 4.145C7.104 4.145 8 5.041 8 6.145C8 7.249 7.104 8.145 6 8.145C4.896 8.145 4 7.249 4 6.145C4 5.041 4.896 4.145 6 4.145" fill="#FFC774"/>
</g>
<defs>
<clipPath id="clip0_2_2">
<rect width="24" height="24" fill="white"/>
</clipPath>
</defs>
</svg>
